<svg width="24" height="30" viewBox="0 0 24 30" fill="none" xmlns="http://www.w3.org/2000/svg">
<g clip-path="url(#clip0_1_36)">
<path opacity="0.5" d="M12.0408 11.0613L8.75098 12.7062C7.66795 13.2477 7.66795 14.7932 8.75098 15.3347L12.0408 16.9796C12.3319 17.1252 12.5664 17.3632 12.7076 17.6564L14.3982 21.1678C14.9236 22.2589 16.4692 22.2818 17.0266 21.2067L18.8821 17.6283C19.025 17.3526 19.2517 17.1293 19.5294 16.9904L22.8408 15.3347C23.9239 14.7932 23.9239 13.2477 22.8408 12.7062L19.5294 11.0505C19.2517 10.9116 19.025 10.6883 18.8821 10.4125L17.0266 6.83415C16.4692 5.75909 14.9236 5.78197 14.3982 6.87309L12.7076 10.3844C12.5664 10.6777 12.3319 10.9157 12.0408 11.0613Z" fill="#EFF6FF"/>
<path opacity="0.4" d="M2.91145 22.6298L0.799366 23.6727C0.071497 24.032 0.0714955 25.07 0.799366 25.4294L2.91145 26.4722C3.10602 26.5683 3.26317 26.7262 3.35827 26.9213L4.45903 29.1789C4.81085 29.9005 5.83362 29.9157 6.20685 29.205L7.41591 26.9024C7.5121 26.7191 7.66389 26.571 7.84952 26.4794L9.97617 25.4294C10.704 25.07 10.704 24.032 9.97617 23.6727L7.84952 22.6226C7.66389 22.531 7.5121 22.3829 7.41591 22.1996L6.20685 19.8971C5.83362 19.1863 4.81085 19.2016 4.45903 19.9231L3.35827 22.1807C3.26317 22.3758 3.10602 22.5337 2.91145 22.6298Z" fill="#EFF6FF"/>
<path opacity="0.2" d="M3.7311 2.62102L1.86907 3.5404C1.50513 3.72009 1.50513 4.23907 1.86907 4.41876L3.7311 5.33812C3.82838 5.38617 3.90696 5.46513 3.95451 5.56265L4.9079 7.51801C5.08379 7.87879 5.59518 7.88643 5.78179 7.53104L6.82031 5.55319C6.86841 5.4616 6.94432 5.38754 7.03714 5.34175L8.90645 4.41876C9.27036 4.23906 9.27036 3.72009 8.90645 3.5404L7.03714 2.61742C6.94432 2.5716 6.86841 2.49757 6.82031 2.40594L5.78179 0.428111C5.59518 0.0727338 5.08379 0.0803679 4.9079 0.441157L3.95451 2.39649C3.90696 2.49401 3.82838 2.57299 3.7311 2.62102Z" fill="#EFF6FF"/>
</g>
<defs>
<clipPath id="clip0_1_36">
<rect width="24" height="30" fill="white"/>
</clipPath>
</defs>
</svg>
