<svg width="112" height="32" viewBox="0 0 112 32" fill="none" xmlns="http://www.w3.org/2000/svg">
<path d="M22.7739 3.177H5.30035C3.54574 3.177 2.12335 4.59939 2.12335 6.354V23.8275C2.12335 25.5821 3.54574 27.0045 5.30035 27.0045H22.7739C24.5285 27.0045 25.9509 25.5821 25.9509 23.8275V6.354C25.9509 4.59939 24.5285 3.177 22.7739 3.177Z" fill="url(#paint0_linear_1_340)"/>
<g filter="url(#filter0_d_1_340)">
<path d="M21.3178 7.14825H6.75651C6.17164 7.14825 5.69751 7.62238 5.69751 8.20725V10.6381C5.69751 11.223 6.17164 11.6971 6.75651 11.6971H21.3178C21.9026 11.6971 22.3768 11.223 22.3768 10.6381V8.20725C22.3768 7.62238 21.9026 7.14825 21.3178 7.14825Z" fill="white"/>
</g>
<g filter="url(#filter1_d_1_340)">
<path d="M15.8212 18.5204H6.75651C6.17164 18.5204 5.69751 18.9946 5.69751 19.5794V22.0103C5.69751 22.5952 6.17164 23.0693 6.75651 23.0693H15.8212C16.406 23.0693 16.8802 22.5952 16.8802 22.0103V19.5794C16.8802 18.9946 16.406 18.5204 15.8212 18.5204Z" fill="white"/>
</g>
<g filter="url(#filter2_d_1_340)">
<path d="M21.3178 12.8344H6.75651C6.17164 12.8344 5.69751 13.3085 5.69751 13.8934V16.3242C5.69751 16.9091 6.17164 17.3832 6.75651 17.3832H21.3178C21.9026 17.3832 22.3768 16.9091 22.3768 16.3242V13.8934C22.3768 13.3085 21.9026 12.8344 21.3178 12.8344Z" fill="white"/>
</g>
<path d="M31.0114 21V9.36364H35.6705C36.5265 9.36364 37.2405 9.49053 37.8125 9.74432C38.3845 9.99811 38.8144 10.3504 39.1023 10.8011C39.3902 11.2481 39.5341 11.7633 39.5341 12.3466C39.5341 12.8011 39.4432 13.2008 39.2614 13.5455C39.0795 13.8864 38.8295 14.1667 38.5114 14.3864C38.197 14.6023 37.8371 14.7557 37.4318 14.8466V14.9602C37.875 14.9792 38.2898 15.1042 38.6761 15.3352C39.0663 15.5663 39.3826 15.8902 39.625 16.3068C39.8674 16.7197 39.9886 17.2121 39.9886 17.7841C39.9886 18.4015 39.8352 18.9527 39.5284 19.4375C39.2254 19.9186 38.7765 20.2992 38.1818 20.5795C37.5871 20.8598 36.8542 21 35.983 21H31.0114ZM33.4716 18.9886H35.4773C36.1629 18.9886 36.6629 18.858 36.9773 18.5966C37.2917 18.3314 37.4489 17.9792 37.4489 17.5398C37.4489 17.2178 37.3712 16.9337 37.2159 16.6875C37.0606 16.4413 36.839 16.2481 36.5511 16.108C36.267 15.9678 35.928 15.8977 35.5341 15.8977H33.4716V18.9886ZM33.4716 14.233H35.2955C35.6326 14.233 35.9318 14.1742 36.1932 14.0568C36.4583 13.9356 36.6667 13.7652 36.8182 13.5455C36.9735 13.3258 37.0511 13.0625 37.0511 12.7557C37.0511 12.3352 36.9015 11.9962 36.6023 11.7386C36.3068 11.4811 35.8864 11.3523 35.3409 11.3523H33.4716V14.233ZM47.1406 17.2841V12.2727H49.5611V21H47.2372V19.4148H47.1463C46.9493 19.9261 46.6217 20.3371 46.1634 20.6477C45.7088 20.9583 45.1539 21.1136 44.4986 21.1136C43.9152 21.1136 43.402 20.9811 42.9588 20.7159C42.5156 20.4508 42.169 20.0739 41.919 19.5852C41.6728 19.0966 41.5478 18.5114 41.544 17.8295V12.2727H43.9645V17.3977C43.9683 17.9129 44.1065 18.3201 44.3793 18.6193C44.652 18.9186 45.0175 19.0682 45.4759 19.0682C45.7675 19.0682 46.0402 19.0019 46.294 18.8693C46.5478 18.733 46.7524 18.5322 46.9077 18.267C47.0668 18.0019 47.1444 17.6742 47.1406 17.2841ZM51.4972 21V12.2727H53.9176V21H51.4972ZM52.7131 11.1477C52.3532 11.1477 52.0445 11.0284 51.7869 10.7898C51.5331 10.5473 51.4062 10.2576 51.4062 9.92045C51.4062 9.58712 51.5331 9.30114 51.7869 9.0625C52.0445 8.82008 52.3532 8.69886 52.7131 8.69886C53.0729 8.69886 53.3797 8.82008 53.6335 9.0625C53.8911 9.30114 54.0199 9.58712 54.0199 9.92045C54.0199 10.2576 53.8911 10.5473 53.6335 10.7898C53.3797 11.0284 53.0729 11.1477 52.7131 11.1477ZM58.277 9.36364V21H55.8565V9.36364H58.277ZM63.4318 21.142C62.7689 21.142 62.1686 20.9716 61.6307 20.6307C61.0966 20.286 60.6723 19.7803 60.358 19.1136C60.0473 18.4432 59.892 17.6212 59.892 16.6477C59.892 15.6477 60.053 14.8163 60.375 14.1534C60.697 13.4867 61.125 12.9886 61.6591 12.6591C62.197 12.3258 62.786 12.1591 63.4261 12.1591C63.9148 12.1591 64.322 12.2424 64.6477 12.4091C64.9773 12.572 65.2424 12.7765 65.4432 13.0227C65.6477 13.2652 65.803 13.5038 65.9091 13.7386H65.983V9.36364H68.3977V21H66.0114V19.6023H65.9091C65.7955 19.8447 65.6345 20.0852 65.4261 20.3239C65.2216 20.5587 64.9545 20.7538 64.625 20.9091C64.2992 21.0644 63.9015 21.142 63.4318 21.142ZM64.1989 19.2159C64.589 19.2159 64.9186 19.1098 65.1875 18.8977C65.4602 18.6818 65.6686 18.3807 65.8125 17.9943C65.9602 17.608 66.0341 17.1553 66.0341 16.6364C66.0341 16.1174 65.9621 15.6667 65.8182 15.2841C65.6742 14.9015 65.4659 14.6061 65.1932 14.3977C64.9205 14.1894 64.589 14.0852 64.1989 14.0852C63.8011 14.0852 63.4659 14.1932 63.1932 14.4091C62.9205 14.625 62.714 14.9242 62.5739 15.3068C62.4337 15.6894 62.3636 16.1326 62.3636 16.6364C62.3636 17.1439 62.4337 17.5928 62.5739 17.983C62.7178 18.3693 62.9242 18.6723 63.1932 18.892C63.4659 19.108 63.8011 19.2159 64.1989 19.2159ZM75.081 12.2727V14.0909H69.6946V12.2727H75.081ZM70.9276 21V11.642C70.9276 11.0095 71.0507 10.4848 71.2969 10.0682C71.5469 9.65151 71.8878 9.33901 72.3196 9.13068C72.7514 8.92235 73.242 8.81818 73.7912 8.81818C74.1624 8.81818 74.5014 8.84659 74.8082 8.90341C75.1188 8.96023 75.3499 9.01136 75.5014 9.05682L75.0696 10.875C74.9749 10.8447 74.8575 10.8163 74.7173 10.7898C74.581 10.7633 74.4408 10.75 74.2969 10.75C73.9408 10.75 73.6927 10.8333 73.5526 11C73.4124 11.1629 73.3423 11.392 73.3423 11.6875V21H70.9276ZM80.1903 21.1705C79.3078 21.1705 78.5445 20.983 77.9006 20.608C77.2604 20.2292 76.7661 19.7027 76.4176 19.0284C76.0691 18.3504 75.8949 17.5644 75.8949 16.6705C75.8949 15.7689 76.0691 14.9811 76.4176 14.3068C76.7661 13.6288 77.2604 13.1023 77.9006 12.7273C78.5445 12.3485 79.3078 12.1591 80.1903 12.1591C81.0729 12.1591 81.8343 12.3485 82.4744 12.7273C83.1184 13.1023 83.6146 13.6288 83.9631 14.3068C84.3116 14.9811 84.4858 15.7689 84.4858 16.6705C84.4858 17.5644 84.3116 18.3504 83.9631 19.0284C83.6146 19.7027 83.1184 20.2292 82.4744 20.608C81.8343 20.983 81.0729 21.1705 80.1903 21.1705ZM80.2017 19.2955C80.6032 19.2955 80.9384 19.1818 81.2074 18.9545C81.4763 18.7235 81.679 18.4091 81.8153 18.0114C81.9555 17.6136 82.0256 17.161 82.0256 16.6534C82.0256 16.1458 81.9555 15.6932 81.8153 15.2955C81.679 14.8977 81.4763 14.5833 81.2074 14.3523C80.9384 14.1212 80.6032 14.0057 80.2017 14.0057C79.7964 14.0057 79.4555 14.1212 79.179 14.3523C78.9063 14.5833 78.6998 14.8977 78.5597 15.2955C78.4233 15.6932 78.3551 16.1458 78.3551 16.6534C78.3551 17.161 78.4233 17.6136 78.5597 18.0114C78.6998 18.4091 78.9063 18.7235 79.179 18.9545C79.4555 19.1818 79.7964 19.2955 80.2017 19.2955ZM86.0597 21V12.2727H88.4062V13.7955H88.4972C88.6563 13.2538 88.9233 12.8447 89.2983 12.5682C89.6733 12.2879 90.1051 12.1477 90.5938 12.1477C90.715 12.1477 90.8456 12.1553 90.9858 12.1705C91.1259 12.1856 91.2491 12.2064 91.3551 12.233V14.3807C91.2415 14.3466 91.0843 14.3163 90.8835 14.2898C90.6828 14.2633 90.4991 14.25 90.3324 14.25C89.9763 14.25 89.6581 14.3277 89.3778 14.483C89.1013 14.6345 88.8816 14.8466 88.7188 15.1193C88.5597 15.392 88.4801 15.7064 88.4801 16.0625V21H86.0597ZM92.6065 21V12.2727H94.9134V13.8125H95.0156C95.1974 13.3011 95.5005 12.8977 95.9247 12.6023C96.349 12.3068 96.8565 12.1591 97.4474 12.1591C98.0459 12.1591 98.5554 12.3087 98.9759 12.608C99.3963 12.9034 99.6766 13.3049 99.8168 13.8125H99.9077C100.086 13.3125 100.408 12.9129 100.874 12.6136C101.343 12.3106 101.898 12.1591 102.538 12.1591C103.353 12.1591 104.014 12.4186 104.521 12.9375C105.033 13.4527 105.288 14.1837 105.288 15.1307V21H102.874V15.608C102.874 15.1231 102.745 14.7595 102.487 14.517C102.23 14.2746 101.908 14.1534 101.521 14.1534C101.082 14.1534 100.739 14.2936 100.493 14.5739C100.247 14.8504 100.124 15.2159 100.124 15.6705V21H97.777V15.5568C97.777 15.1288 97.6539 14.7879 97.4077 14.5341C97.1652 14.2803 96.8452 14.1534 96.4474 14.1534C96.1785 14.1534 95.9361 14.2216 95.7202 14.358C95.508 14.4905 95.3395 14.678 95.2145 14.9205C95.0895 15.1591 95.027 15.4394 95.027 15.7614V21H92.6065Z" fill="white"/>
<defs>
<filter id="filter0_d_1_340" x="5.43276" y="6.8835" width="18.2678" height="6.13738" filterUnits="userSpaceOnUse" color-interpolation-filters="sRGB">
<feFlood flood-opacity="0" result="BackgroundImageFix"/>
<feColorMatrix in="SourceAlpha" type="matrix" values="0 0 0 0 0 0 0 0 0 0 0 0 0 0 0 0 0 0 127 0" result="hardAlpha"/>
<feOffset dx="0.5295" dy="0.5295"/>
<feGaussianBlur stdDeviation="0.397125"/>
<feComposite in2="hardAlpha" operator="out"/>
<feColorMatrix type="matrix" values="0 0 0 0 0 0 0 0 0 0 0 0 0 0 0 0 0 0 0.15 0"/>
<feBlend mode="normal" in2="BackgroundImageFix" result="effect1_dropShadow_1_340"/>
<feBlend mode="normal" in="SourceGraphic" in2="effect1_dropShadow_1_340" result="shape"/>
</filter>
<filter id="filter1_d_1_340" x="5.43276" y="18.2557" width="12.7712" height="6.13739" filterUnits="userSpaceOnUse" color-interpolation-filters="sRGB">
<feFlood flood-opacity="0" result="BackgroundImageFix"/>
<feColorMatrix in="SourceAlpha" type="matrix" values="0 0 0 0 0 0 0 0 0 0 0 0 0 0 0 0 0 0 127 0" result="hardAlpha"/>
<feOffset dx="0.5295" dy="0.5295"/>
<feGaussianBlur stdDeviation="0.397125"/>
<feComposite in2="hardAlpha" operator="out"/>
<feColorMatrix type="matrix" values="0 0 0 0 0 0 0 0 0 0 0 0 0 0 0 0 0 0 0.15 0"/>
<feBlend mode="normal" in2="BackgroundImageFix" result="effect1_dropShadow_1_340"/>
<feBlend mode="normal" in="SourceGraphic" in2="effect1_dropShadow_1_340" result="shape"/>
</filter>
<filter id="filter2_d_1_340" x="5.43276" y="12.5696" width="18.2678" height="6.13739" filterUnits="userSpaceOnUse" color-interpolation-filters="sRGB">
<feFlood flood-opacity="0" result="BackgroundImageFix"/>
<feColorMatrix in="SourceAlpha" type="matrix" values="0 0 0 0 0 0 0 0 0 0 0 0 0 0 0 0 0 0 127 0" result="hardAlpha"/>
<feOffset dx="0.5295" dy="0.5295"/>
<feGaussianBlur stdDeviation="0.397125"/>
<feComposite in2="hardAlpha" operator="out"/>
<feColorMatrix type="matrix" values="0 0 0 0 0 0 0 0 0 0 0 0 0 0 0 0 0 0 0.15 0"/>
<feBlend mode="normal" in2="BackgroundImageFix" result="effect1_dropShadow_1_340"/>
<feBlend mode="normal" in="SourceGraphic" in2="effect1_dropShadow_1_340" result="shape"/>
</filter>
<linearGradient id="paint0_linear_1_340" x1="2.12335" y1="3.177" x2="25.9509" y2="27.0045" gradientUnits="userSpaceOnUse">
<stop stop-color="#38BFF5"/>
<stop offset="1" stop-color="#1441C2"/>
</linearGradient>
</defs>
</svg>
