<svg width="41" height="41" viewBox="0 0 41 41" fill="none" xmlns="http://www.w3.org/2000/svg">
<g filter="url(#filter0_d_1_142)">
<rect x="2.33002" y="1.75" width="36" height="36" rx="18" fill="#DBEAFE" shape-rendering="crispEdges"/>
<g clip-path="url(#clip0_1_142)">
<path d="M28.455 24.125V23.935C28.4549 23.646 28.4213 23.358 28.355 23.0767L26.465 15.0433C26.3198 14.4263 25.9705 13.8764 25.4736 13.4828C24.9767 13.0892 24.3614 12.8751 23.7275 12.875H16.9325C16.2986 12.8751 15.6834 13.0892 15.1865 13.4828C14.6896 13.8764 14.3402 14.4263 14.195 15.0433L12.305 23.0767C12.2387 23.358 12.2052 23.646 12.205 23.935V24.125M28.455 24.125C28.455 24.788 28.1916 25.4239 27.7228 25.8928C27.2539 26.3616 26.6181 26.625 25.955 26.625H14.705C14.042 26.625 13.4061 26.3616 12.9373 25.8928C12.4684 25.4239 12.205 24.788 12.205 24.125M28.455 24.125C28.455 23.462 28.1916 22.8261 27.7228 22.3572C27.2539 21.8884 26.6181 21.625 25.955 21.625H14.705C14.042 21.625 13.4061 21.8884 12.9373 22.3572C12.4684 22.8261 12.205 23.462 12.205 24.125M25.955 24.125H25.9617V24.1317H25.955V24.125ZM23.455 24.125H23.4617V24.1317H23.455V24.125Z" stroke="#2563EB" stroke-width="1.25" stroke-linecap="round" stroke-linejoin="round"/>
</g>
</g>
<defs>
<filter id="filter0_d_1_142" x="0.330017" y="0.75" width="40" height="40" filterUnits="userSpaceOnUse" color-interpolation-filters="sRGB">
<feFlood flood-opacity="0" result="BackgroundImageFix"/>
<feColorMatrix in="SourceAlpha" type="matrix" values="0 0 0 0 0 0 0 0 0 0 0 0 0 0 0 0 0 0 127 0" result="hardAlpha"/>
<feOffset dy="1"/>
<feGaussianBlur stdDeviation="1"/>
<feComposite in2="hardAlpha" operator="out"/>
<feColorMatrix type="matrix" values="0 0 0 0 0 0 0 0 0 0 0 0 0 0 0 0 0 0 0.05 0"/>
<feBlend mode="normal" in2="BackgroundImageFix" result="effect1_dropShadow_1_142"/>
<feBlend mode="normal" in="SourceGraphic" in2="effect1_dropShadow_1_142" result="shape"/>
</filter>
<clipPath id="clip0_1_142">
<rect width="20" height="20" fill="white" transform="translate(10.33 9.75)"/>
</clipPath>
</defs>
</svg>
