<svg width="40" height="41" viewBox="0 0 40 41" fill="none" xmlns="http://www.w3.org/2000/svg">
<g filter="url(#filter0_d_1_151)">
<rect x="2" y="1.75" width="36" height="36" rx="18" fill="#DBEAFE" shape-rendering="crispEdges"/>
<g clip-path="url(#clip0_1_151)">
<path d="M19.5167 22.3917L24.375 27.25C24.7917 27.6533 25.3502 27.8768 25.9301 27.8721C26.51 27.8673 27.0648 27.6349 27.4748 27.2248C27.8849 26.8148 28.1173 26.26 28.1221 25.6801C28.1268 25.1002 27.9033 24.5417 27.5 24.125L22.6025 19.2275M19.5167 22.3917L21.5967 19.8667C21.8608 19.5467 22.2133 19.345 22.6033 19.2283C23.0617 19.0917 23.5725 19.0717 24.0558 19.1117C24.7074 19.1676 25.3622 19.0522 25.9553 18.7769C26.5485 18.5016 27.0593 18.076 27.4372 17.5423C27.8151 17.0086 28.0468 16.3854 28.1094 15.7345C28.172 15.0836 28.0634 14.4276 27.7942 13.8317L25.0642 16.5625C24.6074 16.4569 24.1895 16.2251 23.858 15.8936C23.5265 15.5622 23.2948 15.1442 23.1892 14.6875L25.9192 11.9575C25.3232 11.6883 24.6672 11.5796 24.0163 11.6422C23.3654 11.7049 22.7422 11.9366 22.2085 12.3145C21.6748 12.6923 21.2492 13.2032 20.9739 13.7963C20.6986 14.3895 20.5832 15.0443 20.6392 15.6958C20.715 16.5925 20.58 17.5825 19.8858 18.1542L19.8008 18.225M19.5167 22.3917L15.6375 27.1025C15.4495 27.3317 15.2156 27.5189 14.9508 27.6523C14.6861 27.7856 14.3963 27.862 14.1003 27.8765C13.8042 27.8911 13.5084 27.8435 13.2318 27.7369C12.9552 27.6302 12.7041 27.4668 12.4945 27.2572C12.2849 27.0476 12.1215 26.7964 12.0148 26.5199C11.9081 26.2433 11.8606 25.9475 11.8751 25.6514C11.8897 25.3553 11.9661 25.0656 12.0994 24.8008C12.2327 24.5361 12.42 24.3022 12.6492 24.1142L18.3467 19.4225L14.9242 16H13.75L11.875 12.875L13.125 11.625L16.25 13.5V14.6742L19.8 18.2242L18.3458 19.4217M25.3125 25.0625L23.125 22.875M14.0558 25.6875H14.0625V25.6942H14.0558V25.6875Z" stroke="#2563EB" stroke-width="1.25" stroke-linecap="round" stroke-linejoin="round"/>
</g>
</g>
<defs>
<filter id="filter0_d_1_151" x="0" y="0.75" width="40" height="40" filterUnits="userSpaceOnUse" color-interpolation-filters="sRGB">
<feFlood flood-opacity="0" result="BackgroundImageFix"/>
<feColorMatrix in="SourceAlpha" type="matrix" values="0 0 0 0 0 0 0 0 0 0 0 0 0 0 0 0 0 0 127 0" result="hardAlpha"/>
<feOffset dy="1"/>
<feGaussianBlur stdDeviation="1"/>
<feComposite in2="hardAlpha" operator="out"/>
<feColorMatrix type="matrix" values="0 0 0 0 0 0 0 0 0 0 0 0 0 0 0 0 0 0 0.05 0"/>
<feBlend mode="normal" in2="BackgroundImageFix" result="effect1_dropShadow_1_151"/>
<feBlend mode="normal" in="SourceGraphic" in2="effect1_dropShadow_1_151" result="shape"/>
</filter>
<clipPath id="clip0_1_151">
<rect width="20" height="20" fill="white" transform="translate(10 9.75)"/>
</clipPath>
</defs>
</svg>
