<svg width="24" height="23" viewBox="0 0 24 23" fill="none" xmlns="http://www.w3.org/2000/svg">
<path d="M8.5 12.405L11.125 15.03L15.5 8.90503M22.5 11.53C22.5 13.0094 21.765 14.3184 20.6415 15.1094C20.7625 15.8009 20.7152 16.5115 20.5033 17.1808C20.2915 17.8502 19.9215 18.4587 19.4247 18.9547C18.9286 19.4516 18.3202 19.8216 17.6508 20.0334C16.9814 20.2452 16.2709 20.2926 15.5793 20.1715C15.1759 20.7461 14.64 21.215 14.0169 21.5385C13.3939 21.862 12.702 22.0306 12 22.03C10.5207 22.03 9.21167 21.295 8.42067 20.1715C7.72911 20.2925 7.01858 20.245 6.34924 20.0332C5.67989 19.8214 5.07142 19.4515 4.57533 18.9547C4.07848 18.4587 3.70848 17.8502 3.49666 17.1808C3.28484 16.5115 3.23745 15.8009 3.3585 15.1094C2.78394 14.7059 2.31506 14.17 1.99155 13.547C1.66804 12.9239 1.49943 12.2321 1.5 11.53C1.5 10.0507 2.235 8.7417 3.3585 7.9507C3.23745 7.25913 3.28484 6.54858 3.49666 5.87922C3.70848 5.20986 4.07848 4.6014 4.57533 4.10536C5.07142 3.60859 5.67989 3.23864 6.34924 3.02683C7.01858 2.81502 7.72911 2.76758 8.42067 2.88853C8.82415 2.31404 9.36009 1.84521 9.98313 1.52171C10.6062 1.19821 11.298 1.02956 12 1.03003C13.4793 1.03003 14.7883 1.76503 15.5793 2.88853C16.2709 2.76758 16.9814 2.81502 17.6508 3.02683C18.3201 3.23864 18.9286 3.60859 19.4247 4.10536C19.9214 4.60145 20.2914 5.20992 20.5032 5.87926C20.715 6.54861 20.7624 7.25913 20.6415 7.9507C21.2161 8.35411 21.6849 8.89004 22.0085 9.51309C22.332 10.1362 22.5006 10.828 22.5 11.53Z" stroke="#2563EB" stroke-width="1.75" stroke-linecap="round" stroke-linejoin="round"/>
</svg>
